<svg width="13" height="13" viewBox="0 0 13 13" fill="none" xmlns="http://www.w3.org/2000/svg">
<path d="M12.5065 8.06209L11.39 7.41734C11.5027 6.80927 11.5027 6.18549 11.39 5.57742L12.5065 4.93267C12.635 4.85928 12.6926 4.70727 12.6507 4.56573C12.3598 3.63267 11.8644 2.78872 11.217 2.08631C11.1174 1.97885 10.9549 1.95264 10.8291 2.02603L9.7126 2.67078C9.24345 2.26715 8.70353 1.95526 8.11906 1.75082V0.463934C8.11906 0.31716 8.01684 0.188734 7.87269 0.157282C6.9108 -0.0576365 5.92532 -0.0471527 5.0106 0.157282C4.86645 0.188734 4.76423 0.31716 4.76423 0.463934V1.75345C4.18238 1.9605 3.64246 2.2724 3.17069 2.6734L2.05678 2.02865C1.92836 1.95526 1.76848 1.97885 1.66888 2.08893C1.02151 2.78872 0.526144 3.63267 0.235218 4.56835C0.190661 4.70989 0.250943 4.8619 0.37937 4.93529L1.4959 5.58004C1.3832 6.18811 1.3832 6.81189 1.4959 7.41996L0.37937 8.06471C0.250943 8.1381 0.193282 8.29011 0.235218 8.43165C0.526144 9.36471 1.02151 10.2087 1.66888 10.9111C1.76848 11.0185 1.93098 11.0447 2.05678 10.9714L3.17331 10.3266C3.64246 10.7302 4.18238 11.0421 4.76685 11.2466V12.5361C4.76685 12.6828 4.86907 12.8113 5.01322 12.8427C5.97512 13.0576 6.9606 13.0472 7.87531 12.8427C8.01946 12.8113 8.12168 12.6828 8.12168 12.5361V11.2466C8.70353 11.0395 9.24345 10.7276 9.71522 10.3266L10.8318 10.9714C10.9602 11.0447 11.1201 11.0212 11.2197 10.9111C11.867 10.2113 12.3624 9.36733 12.6533 8.43165C12.6926 8.28749 12.635 8.13548 12.5065 8.06209ZM6.44165 8.59415C5.2858 8.59415 4.34488 7.65322 4.34488 6.49738C4.34488 5.34154 5.2858 4.40061 6.44165 4.40061C7.59749 4.40061 8.53841 5.34154 8.53841 6.49738C8.53841 7.65322 7.59749 8.59415 6.44165 8.59415Z" fill="#F9FAFB"/>
</svg>
