<svg width="16" height="15" viewBox="0 0 16 15" fill="none" xmlns="http://www.w3.org/2000/svg">
<path d="M14.8494 2.16537V6.16537M14.8494 6.16537H10.8494M14.8494 6.16537L11.7627 3.25871C10.8432 2.33853 9.6494 1.74216 8.36138 1.55947C7.07337 1.37677 5.76086 1.61765 4.62165 2.2458C3.48244 2.87395 2.57825 3.85534 2.04533 5.04208C1.5124 6.22883 1.37962 7.55663 1.66699 8.8254C1.95437 10.0942 2.64632 11.2352 3.63859 12.0765C4.63085 12.9178 5.86967 13.4138 7.16836 13.4898C8.46705 13.5657 9.75525 13.2176 10.8388 12.4977C11.9224 11.7778 12.7427 10.7253 13.1761 9.4987" stroke="#E5E7EB" stroke-width="2" stroke-linecap="round" stroke-linejoin="round"/>
</svg>
